<svg xmlns="http://www.w3.org/2000/svg" viewBox="0 0 200 250" width="100%" height="100%">
        <!-- Background -->
        <rect width="100%" height="100%"  rx="16"/>
        <defs>
            <linearGradient id="serviceGrad" x1="0%" y1="0%" x2="100%" y2="100%">
                <stop offset="0%" stop-color="#0B1C3F" />
                <stop offset="100%" stop-color="#1A2E5A" />
            </linearGradient>
        </defs>
        <rect width="100%" height="100%" fill="url(#serviceGrad)" rx="16"/>
        
        
            <!-- Shiny Tooth -->
            <path d="M70,80 C60,40 140,40 130,80 C125,100 135,130 120,160 C110,180 115,220 110,230 C105,220 105,170 95,160 C85,150 80,100 70,80 Z" fill="#FFFFFF" stroke="#0B1C3F" stroke-width="4"/>
            <!-- Sparkle Stars (Gold) -->
            <path d="M50,70 L55,75 L62,75 L56,80 L58,87 L50,82 L42,87 L44,80 L38,75 L45,75 Z" fill="#D4AF37"/>
            <path d="M140,110 L143,115 L150,115 L144,120 L146,127 L140,122 L134,127 L136,120 L130,115 L137,115 Z" fill="#D4AF37"/>
            <path d="M125,50 L128,53 L133,53 L129,57 L130,62 L125,58 L120,62 L121,57 L117,53 L122,53 Z" fill="#D4AF37"/>
            <!-- Shine lines -->
            <path d="M85,75 Q92,65 95,95" stroke="#EBF0F5" stroke-width="3" stroke-linecap="round" fill="none"/>
        
        
        <!-- Text Label -->
        <text x="100" y="225" fill="#FFFFFF" font-family="'Plus Jakarta Sans', sans-serif" font-size="12" font-weight="bold" text-anchor="middle" letter-spacing="0.5">TEETH WHITENING</text>
    </svg>